<mxfile host="app.diagrams.net" modified="2023-05-25T11:08:48.721Z" agent="Mozilla/5.0 (Windows NT 10.0; Win64; x64) AppleWebKit/537.36 (KHTML, like Gecko) Chrome/113.0.0.0 Safari/537.36" etag="AlmqizFLkZmmXIDhPmwD" version="21.3.3" type="github">
  <diagram id="R2lEEEUBdFMjLlhIrx00" name="Page-1">
    <mxGraphModel dx="1730" dy="427" grid="1" gridSize="10" guides="1" tooltips="1" connect="1" arrows="1" fold="1" page="1" pageScale="1" pageWidth="850" pageHeight="1100" math="0" shadow="0" extFonts="Permanent Marker^https://fonts.googleapis.com/css?family=Permanent+Marker">
      <root>
        <mxCell id="0" />
        <mxCell id="1" parent="0" />
        <mxCell id="uHfhlRV4sNHznVP2dGVr-1" value="PATIENT" style="rounded=0;whiteSpace=wrap;html=1;" vertex="1" parent="1">
          <mxGeometry x="110" y="310" width="120" height="30" as="geometry" />
        </mxCell>
        <mxCell id="uHfhlRV4sNHznVP2dGVr-2" value="EMPLOYEE" style="rounded=0;whiteSpace=wrap;html=1;" vertex="1" parent="1">
          <mxGeometry x="570" y="310" width="120" height="35" as="geometry" />
        </mxCell>
        <mxCell id="uHfhlRV4sNHznVP2dGVr-3" value="Hospital" style="rounded=0;whiteSpace=wrap;html=1;" vertex="1" parent="1">
          <mxGeometry x="350" y="390" width="120" height="30" as="geometry" />
        </mxCell>
        <mxCell id="uHfhlRV4sNHznVP2dGVr-4" value="" style="endArrow=classic;html=1;rounded=0;entryX=0;entryY=1;entryDx=0;entryDy=0;" edge="1" parent="1" target="uHfhlRV4sNHznVP2dGVr-2">
          <mxGeometry width="50" height="50" relative="1" as="geometry">
            <mxPoint x="470" y="390" as="sourcePoint" />
            <mxPoint x="520" y="340" as="targetPoint" />
          </mxGeometry>
        </mxCell>
        <mxCell id="uHfhlRV4sNHznVP2dGVr-5" value="" style="endArrow=classic;html=1;rounded=0;entryX=1;entryY=1;entryDx=0;entryDy=0;" edge="1" parent="1" target="uHfhlRV4sNHznVP2dGVr-1">
          <mxGeometry width="50" height="50" relative="1" as="geometry">
            <mxPoint x="350" y="390" as="sourcePoint" />
            <mxPoint x="400" y="340" as="targetPoint" />
          </mxGeometry>
        </mxCell>
        <mxCell id="uHfhlRV4sNHznVP2dGVr-9" value="Name" style="ellipse;whiteSpace=wrap;html=1;" vertex="1" parent="1">
          <mxGeometry x="-20" y="200" width="120" height="30" as="geometry" />
        </mxCell>
        <mxCell id="uHfhlRV4sNHznVP2dGVr-13" value="Sex" style="ellipse;whiteSpace=wrap;html=1;" vertex="1" parent="1">
          <mxGeometry x="-20" y="110" width="120" height="20" as="geometry" />
        </mxCell>
        <mxCell id="uHfhlRV4sNHznVP2dGVr-14" value="Phone No" style="ellipse;whiteSpace=wrap;html=1;" vertex="1" parent="1">
          <mxGeometry x="-10" y="70" width="120" height="20" as="geometry" />
        </mxCell>
        <mxCell id="uHfhlRV4sNHznVP2dGVr-15" value="Patient health history file" style="ellipse;whiteSpace=wrap;html=1;" vertex="1" parent="1">
          <mxGeometry x="-30" y="280" width="120" height="60" as="geometry" />
        </mxCell>
        <mxCell id="uHfhlRV4sNHznVP2dGVr-16" value="BILL" style="ellipse;whiteSpace=wrap;html=1;" vertex="1" parent="1">
          <mxGeometry x="110" y="50" width="120" height="20" as="geometry" />
        </mxCell>
        <mxCell id="uHfhlRV4sNHznVP2dGVr-19" value="" style="endArrow=classic;html=1;rounded=0;" edge="1" parent="1" target="uHfhlRV4sNHznVP2dGVr-15">
          <mxGeometry width="50" height="50" relative="1" as="geometry">
            <mxPoint x="110" y="330" as="sourcePoint" />
            <mxPoint x="160" y="280" as="targetPoint" />
          </mxGeometry>
        </mxCell>
        <mxCell id="uHfhlRV4sNHznVP2dGVr-20" value="" style="endArrow=classic;html=1;rounded=0;entryX=1;entryY=0.5;entryDx=0;entryDy=0;exitX=0.392;exitY=-0.033;exitDx=0;exitDy=0;exitPerimeter=0;" edge="1" parent="1" source="uHfhlRV4sNHznVP2dGVr-1" target="uHfhlRV4sNHznVP2dGVr-14">
          <mxGeometry width="50" height="50" relative="1" as="geometry">
            <mxPoint x="140" y="310" as="sourcePoint" />
            <mxPoint x="190" y="260" as="targetPoint" />
          </mxGeometry>
        </mxCell>
        <mxCell id="uHfhlRV4sNHznVP2dGVr-24" value="" style="endArrow=classic;html=1;rounded=0;entryX=0.5;entryY=1;entryDx=0;entryDy=0;exitX=0.5;exitY=0;exitDx=0;exitDy=0;" edge="1" parent="1" source="uHfhlRV4sNHznVP2dGVr-1" target="uHfhlRV4sNHznVP2dGVr-16">
          <mxGeometry width="50" height="50" relative="1" as="geometry">
            <mxPoint x="110" y="310" as="sourcePoint" />
            <mxPoint x="160" y="260" as="targetPoint" />
          </mxGeometry>
        </mxCell>
        <mxCell id="uHfhlRV4sNHznVP2dGVr-26" value="LAB STAFF" style="rounded=0;whiteSpace=wrap;html=1;" vertex="1" parent="1">
          <mxGeometry x="400" y="250" width="120" height="20" as="geometry" />
        </mxCell>
        <mxCell id="uHfhlRV4sNHznVP2dGVr-28" value="WARDBOY" style="rounded=0;whiteSpace=wrap;html=1;" vertex="1" parent="1">
          <mxGeometry x="390" y="290" width="120" height="20" as="geometry" />
        </mxCell>
        <mxCell id="uHfhlRV4sNHznVP2dGVr-30" value="Watchman" style="rounded=0;whiteSpace=wrap;html=1;" vertex="1" parent="1">
          <mxGeometry x="400" y="340" width="120" height="20" as="geometry" />
        </mxCell>
        <mxCell id="uHfhlRV4sNHznVP2dGVr-32" value="RECIPTIONIEST" style="rounded=0;whiteSpace=wrap;html=1;" vertex="1" parent="1">
          <mxGeometry x="690" y="360" width="120" height="20" as="geometry" />
        </mxCell>
        <mxCell id="uHfhlRV4sNHznVP2dGVr-33" value="ADMIN" style="rounded=0;whiteSpace=wrap;html=1;" vertex="1" parent="1">
          <mxGeometry x="710" y="310" width="120" height="20" as="geometry" />
        </mxCell>
        <mxCell id="uHfhlRV4sNHznVP2dGVr-34" value="NURSE" style="rounded=0;whiteSpace=wrap;html=1;" vertex="1" parent="1">
          <mxGeometry x="720" y="250" width="120" height="20" as="geometry" />
        </mxCell>
        <mxCell id="uHfhlRV4sNHznVP2dGVr-35" value="DOCTOR" style="rounded=0;whiteSpace=wrap;html=1;" vertex="1" parent="1">
          <mxGeometry x="570" y="80" width="120" height="20" as="geometry" />
        </mxCell>
        <mxCell id="uHfhlRV4sNHznVP2dGVr-37" value="" style="endArrow=classic;html=1;rounded=0;exitX=1;exitY=0;exitDx=0;exitDy=0;" edge="1" parent="1" source="uHfhlRV4sNHznVP2dGVr-2">
          <mxGeometry width="50" height="50" relative="1" as="geometry">
            <mxPoint x="670" y="320" as="sourcePoint" />
            <mxPoint x="720" y="270" as="targetPoint" />
          </mxGeometry>
        </mxCell>
        <mxCell id="uHfhlRV4sNHznVP2dGVr-38" value="" style="endArrow=classic;html=1;rounded=0;entryX=0.133;entryY=0.1;entryDx=0;entryDy=0;entryPerimeter=0;" edge="1" parent="1" target="uHfhlRV4sNHznVP2dGVr-32">
          <mxGeometry width="50" height="50" relative="1" as="geometry">
            <mxPoint x="690" y="345" as="sourcePoint" />
            <mxPoint x="740" y="295" as="targetPoint" />
          </mxGeometry>
        </mxCell>
        <mxCell id="uHfhlRV4sNHznVP2dGVr-39" value="" style="endArrow=classic;html=1;rounded=0;entryX=0.433;entryY=1.05;entryDx=0;entryDy=0;entryPerimeter=0;" edge="1" parent="1" target="uHfhlRV4sNHznVP2dGVr-35">
          <mxGeometry width="50" height="50" relative="1" as="geometry">
            <mxPoint x="620" y="310" as="sourcePoint" />
            <mxPoint x="670" y="260" as="targetPoint" />
          </mxGeometry>
        </mxCell>
        <mxCell id="uHfhlRV4sNHznVP2dGVr-40" value="" style="endArrow=classic;html=1;rounded=0;entryX=1;entryY=1;entryDx=0;entryDy=0;" edge="1" parent="1" target="uHfhlRV4sNHznVP2dGVr-26">
          <mxGeometry width="50" height="50" relative="1" as="geometry">
            <mxPoint x="570" y="310" as="sourcePoint" />
            <mxPoint x="620" y="260" as="targetPoint" />
          </mxGeometry>
        </mxCell>
        <mxCell id="uHfhlRV4sNHznVP2dGVr-42" value="" style="endArrow=classic;html=1;rounded=0;entryX=1;entryY=0.5;entryDx=0;entryDy=0;" edge="1" parent="1" target="uHfhlRV4sNHznVP2dGVr-28">
          <mxGeometry width="50" height="50" relative="1" as="geometry">
            <mxPoint x="570" y="330" as="sourcePoint" />
            <mxPoint x="620" y="280" as="targetPoint" />
          </mxGeometry>
        </mxCell>
        <mxCell id="uHfhlRV4sNHznVP2dGVr-43" value="" style="endArrow=classic;html=1;rounded=0;entryX=1;entryY=0.5;entryDx=0;entryDy=0;" edge="1" parent="1" target="uHfhlRV4sNHznVP2dGVr-30">
          <mxGeometry width="50" height="50" relative="1" as="geometry">
            <mxPoint x="570" y="340" as="sourcePoint" />
            <mxPoint x="620" y="290" as="targetPoint" />
          </mxGeometry>
        </mxCell>
        <mxCell id="uHfhlRV4sNHznVP2dGVr-10" value="Age" style="ellipse;whiteSpace=wrap;html=1;" vertex="1" parent="1">
          <mxGeometry x="-20" y="160" width="120" height="20" as="geometry" />
        </mxCell>
        <mxCell id="uHfhlRV4sNHznVP2dGVr-45" value="" style="endArrow=classic;html=1;rounded=0;entryX=1;entryY=0.5;entryDx=0;entryDy=0;exitX=0.317;exitY=0.033;exitDx=0;exitDy=0;exitPerimeter=0;" edge="1" parent="1" source="uHfhlRV4sNHznVP2dGVr-1" target="uHfhlRV4sNHznVP2dGVr-13">
          <mxGeometry width="50" height="50" relative="1" as="geometry">
            <mxPoint x="140" y="310" as="sourcePoint" />
            <mxPoint x="190" y="260" as="targetPoint" />
          </mxGeometry>
        </mxCell>
        <mxCell id="uHfhlRV4sNHznVP2dGVr-46" value="" style="endArrow=classic;html=1;rounded=0;entryX=1;entryY=0.5;entryDx=0;entryDy=0;" edge="1" parent="1" target="uHfhlRV4sNHznVP2dGVr-10">
          <mxGeometry width="50" height="50" relative="1" as="geometry">
            <mxPoint x="130" y="310" as="sourcePoint" />
            <mxPoint x="180" y="260" as="targetPoint" />
          </mxGeometry>
        </mxCell>
        <mxCell id="uHfhlRV4sNHznVP2dGVr-47" value="" style="endArrow=classic;html=1;rounded=0;entryX=1;entryY=1;entryDx=0;entryDy=0;" edge="1" parent="1" target="uHfhlRV4sNHznVP2dGVr-9">
          <mxGeometry width="50" height="50" relative="1" as="geometry">
            <mxPoint x="110" y="310" as="sourcePoint" />
            <mxPoint x="160" y="260" as="targetPoint" />
          </mxGeometry>
        </mxCell>
        <mxCell id="uHfhlRV4sNHznVP2dGVr-48" value="" style="endArrow=classic;html=1;rounded=0;entryX=0;entryY=0.5;entryDx=0;entryDy=0;" edge="1" parent="1" target="uHfhlRV4sNHznVP2dGVr-33">
          <mxGeometry width="50" height="50" relative="1" as="geometry">
            <mxPoint x="690" y="325" as="sourcePoint" />
            <mxPoint x="740" y="275" as="targetPoint" />
          </mxGeometry>
        </mxCell>
        <mxCell id="uHfhlRV4sNHznVP2dGVr-49" value="EMP Id" style="ellipse;whiteSpace=wrap;html=1;" vertex="1" parent="1">
          <mxGeometry x="580" y="10" width="90" height="20" as="geometry" />
        </mxCell>
        <mxCell id="uHfhlRV4sNHznVP2dGVr-50" value="" style="endArrow=classic;html=1;rounded=0;entryX=0.5;entryY=1;entryDx=0;entryDy=0;" edge="1" parent="1" target="uHfhlRV4sNHznVP2dGVr-49">
          <mxGeometry width="50" height="50" relative="1" as="geometry">
            <mxPoint x="625" y="80" as="sourcePoint" />
            <mxPoint x="670" y="30" as="targetPoint" />
          </mxGeometry>
        </mxCell>
        <mxCell id="uHfhlRV4sNHznVP2dGVr-51" value="Specialization" style="ellipse;whiteSpace=wrap;html=1;" vertex="1" parent="1">
          <mxGeometry x="690" y="20" width="120" height="40" as="geometry" />
        </mxCell>
        <mxCell id="uHfhlRV4sNHznVP2dGVr-52" value="" style="endArrow=classic;html=1;rounded=0;exitX=1;exitY=0;exitDx=0;exitDy=0;" edge="1" parent="1" source="uHfhlRV4sNHznVP2dGVr-35">
          <mxGeometry width="50" height="50" relative="1" as="geometry">
            <mxPoint x="670" y="100" as="sourcePoint" />
            <mxPoint x="720" y="50" as="targetPoint" />
          </mxGeometry>
        </mxCell>
        <mxCell id="uHfhlRV4sNHznVP2dGVr-53" value="NAME" style="ellipse;whiteSpace=wrap;html=1;" vertex="1" parent="1">
          <mxGeometry x="450" y="20" width="120" height="40" as="geometry" />
        </mxCell>
        <mxCell id="uHfhlRV4sNHznVP2dGVr-54" value="Dept Id" style="ellipse;whiteSpace=wrap;html=1;" vertex="1" parent="1">
          <mxGeometry x="710" y="80" width="140" height="30" as="geometry" />
        </mxCell>
        <mxCell id="uHfhlRV4sNHznVP2dGVr-55" style="edgeStyle=orthogonalEdgeStyle;rounded=0;orthogonalLoop=1;jettySize=auto;html=1;exitX=0.5;exitY=1;exitDx=0;exitDy=0;" edge="1" parent="1" source="uHfhlRV4sNHznVP2dGVr-53" target="uHfhlRV4sNHznVP2dGVr-53">
          <mxGeometry relative="1" as="geometry" />
        </mxCell>
        <mxCell id="uHfhlRV4sNHznVP2dGVr-58" value="" style="endArrow=classic;html=1;rounded=0;entryX=1;entryY=1;entryDx=0;entryDy=0;" edge="1" parent="1" target="uHfhlRV4sNHznVP2dGVr-53">
          <mxGeometry width="50" height="50" relative="1" as="geometry">
            <mxPoint x="570" y="80" as="sourcePoint" />
            <mxPoint x="620" y="30" as="targetPoint" />
          </mxGeometry>
        </mxCell>
        <mxCell id="uHfhlRV4sNHznVP2dGVr-59" value="" style="endArrow=classic;html=1;rounded=0;" edge="1" parent="1" target="uHfhlRV4sNHznVP2dGVr-54">
          <mxGeometry width="50" height="50" relative="1" as="geometry">
            <mxPoint x="690" y="100" as="sourcePoint" />
            <mxPoint x="740" y="50" as="targetPoint" />
          </mxGeometry>
        </mxCell>
      </root>
    </mxGraphModel>
  </diagram>
</mxfile>
